<svg width="100%" height="100%" viewBox="0 0 20 22" fill="none" stroke="currentColor" stroke-width="2" xmlns="http://www.w3.org/2000/svg" class="w-5"><line x1="4.375" y1="5.55646" x2="11.125" y2="5.55646"></line><line x1="4.375" y1="10.0016" x2="11.125" y2="10.0016"></line><line x1="4.375" y1="14.4468" x2="11.125" y2="14.4468"></line><path d="M14.5 5.44188C16 5.44188 19 5.44188 19 5.44188C19 5.44188 19 14.3322 19 18.7774C19 19.3669 18.7629 19.9322 18.341 20.349C17.919 20.7658 17.3467 21 16.75 21M16.75 21C16.1533 21 15.581 20.7658 15.159 20.349C14.7371 19.9322 14.5 19.3669 14.5 18.7774C14.5 13.5924 14.5 1.00281 14.5 1.00281L1 1C1 1 1 12.8506 1 17.6661C1 18.5503 1.35558 19.3983 1.98851 20.0235C2.62145 20.6487 3.47989 21 4.375 21H16.75Z"></path></svg>